<?xml version="1.0" encoding="UTF-8" standalone="no"?>
<svg
   xmlns:dc="http://purl.org/dc/elements/1.1/"
   xmlns:cc="http://creativecommons.org/ns#"
   xmlns:rdf="http://www.w3.org/1999/02/22-rdf-syntax-ns#"
   xmlns:svg="http://www.w3.org/2000/svg"
   xmlns="http://www.w3.org/2000/svg"
   xmlns:sodipodi="http://sodipodi.sourceforge.net/DTD/sodipodi-0.dtd"
   xmlns:inkscape="http://www.inkscape.org/namespaces/inkscape"
   version="1.1"
   x="0px"
   y="0px"
   viewBox="133.933 496.201 100 110"
   enable-background="new 133.933 496.201 86.79 97.434"
   xml:space="preserve"
   id="svg2"
   inkscape:version="0.48.5 r10040"
   width="100%"
   height="100%"
   sodipodi:docname="noun_63864_cc.svg"><metadata
     id="metadata14"><rdf:RDF><cc:Work
         rdf:about=""><dc:format>image/svg+xml</dc:format><dc:type
           rdf:resource="http://purl.org/dc/dcmitype/StillImage" /><dc:title></dc:title></cc:Work></rdf:RDF></metadata><defs
     id="defs12" /><sodipodi:namedview
     pagecolor="#ffffff"
     bordercolor="#666666"
     borderopacity="1"
     objecttolerance="10"
     gridtolerance="10"
     guidetolerance="10"
     inkscape:pageopacity="0"
     inkscape:pageshadow="2"
     inkscape:window-width="936"
     inkscape:window-height="833"
     id="namedview10"
     showgrid="false"
     inkscape:zoom="1.9377219"
     inkscape:cx="44.42714"
     inkscape:cy="60.89625"
     inkscape:window-x="1702"
     inkscape:window-y="126"
     inkscape:window-maximized="0"
     inkscape:current-layer="svg2" /><path
     d="m 226.61848,598.77671 c -1.12766,1.2866 -2.84784,1.44051 -3.72402,1.41637 l -78.14491,0.0151 c -0.68304,0 -2.38409,-0.14486 -3.50472,-1.43649 -0.56131,-0.64281 -1.16588,-1.80265 -0.90132,-3.70993 0.41646,-2.99671 2.41025,-4.37989 4.34267,-4.75712 l 10.93866,-87.57063 c 0.15793,-0.10261 0.34705,-0.44362 0.50699,-0.54019 h 55.41456 c 0.23137,0.18308 0.4577,0.37723 0.69209,0.55629 l 6.72676,53.83824 4.20787,33.71931 c 1.93947,0.37722 3.93224,1.7584 4.35072,4.75712 0.26154,1.90626 -0.34404,3.06612 -0.90535,3.71194 z m -9.0515,-28.88474 -1.45159,-11.61968 -6.61912,-53.04958 h -51.12319 l -10.58155,84.76505 h 72.28427 l -2.50882,-20.09579 z m 6.94806,25.58826 c -0.25148,-1.86201 -1.48779,-2.25333 -2.55208,-2.25333 h -0.005 l -1.4375,-0.21226 -74.03461,0.004 -0.66393,0.20823 c -0.98482,0 -2.21308,0.39232 -2.48066,2.25332 -0.0573,0.42653 -0.0724,1.00494 0.18912,1.30069 0.24645,0.29373 0.80877,0.3732 1.43649,0.38729 l 38.95928,0.0342 39.18663,-0.0232 c 0.4054,-0.006 0.97175,-0.10662 1.22324,-0.39835 0.25652,-0.29575 0.24243,-0.87416 0.17905,-1.30068 z"
     id="path4"
     inkscape:connector-curvature="0" /></svg>